<?xml version="1.0" encoding="UTF-8" ?>
<!DOCTYPE svg PUBLIC "-//W3C//DTD SVG 1.1//EN" "http://www.w3.org/Graphics/SVG/1.1/DTD/svg11.dtd">
<svg width="2041pt" height="163pt" viewBox="0 0 2041 163" version="1.1" xmlns="http://www.w3.org/2000/svg">
<g id="#ffffffff">
</g>
<g id="#0052d9ff">
<path fill="#0052d9" opacity="1.00" d=" M 17.00 5.00 C 43.67 5.00 70.33 5.00 97.00 5.00 C 97.00 13.34 97.00 21.67 97.00 30.00 C 78.33 30.01 59.67 29.99 41.00 30.00 C 41.00 65.34 40.99 100.67 41.00 136.00 C 77.00 136.00 113.00 136.00 149.00 136.00 C 149.00 118.00 149.00 100.00 149.00 82.00 C 156.67 82.00 164.33 82.00 172.00 82.00 C 172.00 108.33 172.00 134.67 172.00 161.00 C 120.33 161.00 68.67 161.00 17.00 161.00 C 17.00 109.00 17.00 57.00 17.00 5.00 Z" />
</g>
<g id="#ea3096ff">
<path fill="#ea3096" opacity="1.00" d=" M 108.00 5.00 C 129.33 5.00 150.66 5.00 172.00 5.00 C 172.00 27.00 172.00 49.00 172.00 71.00 C 164.33 71.00 156.67 71.00 149.00 71.00 C 149.00 57.33 149.00 43.67 149.00 30.00 C 135.33 30.00 121.67 30.00 108.00 30.00 C 107.99 21.67 108.00 13.34 108.00 5.00 Z" />
</g>
<g id="#000000ff">
<path fill="#000000" opacity="1.00" d=" M 352.19 20.98 C 361.04 21.02 369.88 20.99 378.73 21.00 C 393.99 50.70 407.99 81.01 422.94 110.86 C 427.66 119.97 431.75 129.38 436.20 138.62 C 437.04 139.77 436.97 141.06 435.92 142.04 C 427.66 141.96 419.40 141.98 411.14 142.03 C 407.95 135.43 405.32 128.55 402.02 121.99 C 378.30 122.02 354.58 121.98 330.86 122.01 C 327.91 128.71 324.91 135.38 321.81 142.01 C 312.66 141.82 303.48 142.36 294.35 141.71 C 302.66 126.87 309.39 111.18 316.65 95.81 C 328.80 71.01 340.56 46.03 352.19 20.98 M 340.69 101.21 C 357.52 101.04 374.34 101.14 391.17 101.14 C 388.29 95.76 386.29 89.95 383.27 84.66 C 378.13 72.36 371.75 60.63 365.90 48.67 C 357.23 66.05 349.09 83.70 340.69 101.21 Z" />
<path fill="#000000" opacity="1.00" d=" M 456.00 20.84 C 465.53 21.57 475.35 20.52 484.62 23.25 C 508.72 34.95 532.18 47.91 556.01 60.14 C 556.02 47.20 555.93 34.27 556.06 21.34 C 564.50 21.42 572.94 21.36 581.38 21.37 C 581.32 61.32 581.49 101.27 581.30 141.22 C 572.90 141.51 564.49 141.47 556.10 141.83 C 556.16 123.20 555.86 104.57 555.88 85.94 C 537.25 77.39 519.05 67.94 500.88 58.44 C 494.40 55.40 488.23 51.71 481.63 48.95 C 481.06 79.97 481.77 110.99 480.98 142.00 C 472.66 142.00 464.33 142.00 456.00 142.00 C 456.00 101.61 455.99 61.22 456.00 20.84 Z" />
<path fill="#000000" opacity="1.00" d=" M 606.80 21.38 C 645.46 22.07 684.17 19.77 722.79 22.40 C 722.70 29.61 722.45 36.81 721.96 44.00 C 707.09 44.03 692.22 43.94 677.35 44.05 C 677.41 76.49 677.37 108.93 677.37 141.37 C 668.91 141.39 660.46 141.37 652.01 141.38 C 651.99 108.96 652.00 76.55 652.00 44.14 C 636.88 43.91 621.75 44.03 606.63 43.42 C 606.69 36.07 606.45 28.72 606.80 21.38 Z" />
<path fill="#000000" opacity="1.00" d=" M 747.25 21.34 C 768.13 22.45 789.07 19.47 809.89 21.92 C 819.96 22.87 829.64 26.05 838.83 30.18 C 849.64 35.29 859.35 43.75 863.93 55.00 C 869.86 69.15 871.09 85.40 866.57 100.12 C 862.61 112.47 854.33 123.54 843.05 130.10 C 831.28 136.95 817.68 140.78 804.06 140.97 C 784.90 141.98 765.70 141.48 746.54 140.75 C 747.08 100.95 746.01 61.14 747.25 21.34 M 772.00 43.85 C 772.00 69.28 772.00 94.72 772.00 120.15 C 786.00 119.32 800.25 121.24 814.05 118.01 C 823.15 115.90 832.06 110.94 836.84 102.64 C 847.19 86.00 843.48 61.23 827.02 49.88 C 822.97 46.76 817.84 45.97 812.98 45.02 C 799.41 42.88 785.65 44.47 772.00 43.85 Z" />
<path fill="#000000" opacity="1.00" d=" M 937.24 22.18 C 956.49 21.68 975.75 21.53 995.00 21.18 C 1014.48 21.45 1033.95 21.75 1053.43 22.14 C 1053.33 29.16 1053.37 36.19 1053.40 43.21 C 1038.27 43.79 1023.14 44.14 1008.00 44.00 C 1007.99 76.46 1008.01 108.92 1007.99 141.38 C 999.54 141.37 991.08 141.39 982.63 141.37 C 982.66 108.96 982.53 76.54 982.70 44.13 C 967.60 43.95 952.50 43.97 937.41 43.45 C 937.32 36.36 937.19 29.27 937.24 22.18 Z" />
<path fill="#000000" opacity="1.00" d=" M 1078.62 21.37 C 1113.29 21.51 1147.98 20.73 1182.64 22.00 C 1182.47 29.07 1182.96 36.14 1182.66 43.22 C 1156.46 44.41 1130.22 43.90 1104.00 44.00 C 1104.00 51.55 1103.98 59.09 1104.02 66.63 C 1127.13 66.62 1150.25 66.62 1173.37 66.63 C 1173.39 73.50 1173.36 80.37 1173.38 87.24 C 1161.26 87.48 1149.14 87.93 1137.03 88.06 C 1126.02 87.76 1115.01 87.54 1104.01 87.22 C 1103.99 98.15 1104.00 109.07 1104.00 120.00 C 1130.67 120.00 1157.33 120.00 1184.00 120.00 C 1183.99 127.13 1184.00 134.25 1184.00 141.38 C 1148.87 141.37 1113.75 141.39 1078.63 141.37 C 1078.60 101.37 1078.64 61.37 1078.62 21.37 Z" />
<path fill="#000000" opacity="1.00" d=" M 1210.61 20.79 C 1219.59 22.05 1229.08 19.88 1237.72 23.27 C 1243.43 27.84 1248.21 33.47 1253.51 38.51 C 1262.30 47.15 1271.26 55.61 1279.87 64.42 C 1293.92 50.61 1307.76 36.59 1321.71 22.68 C 1322.31 21.86 1323.12 21.47 1324.13 21.50 C 1332.52 21.49 1340.92 21.39 1349.31 21.23 C 1349.16 61.33 1349.30 101.43 1349.25 141.52 C 1340.39 141.43 1331.54 141.16 1322.70 140.74 C 1322.66 113.14 1322.49 85.54 1322.48 57.95 C 1308.33 71.28 1294.10 84.52 1279.90 97.78 C 1265.29 84.19 1251.34 69.87 1236.20 56.87 C 1236.08 85.04 1235.92 113.21 1236.00 141.38 C 1227.54 141.37 1219.08 141.39 1210.63 141.37 C 1210.60 101.17 1210.65 60.98 1210.61 20.79 Z" />
<path fill="#000000" opacity="1.00" d=" M 1382.61 21.38 C 1407.41 21.47 1432.23 20.84 1457.03 21.65 C 1468.08 22.03 1479.26 25.31 1488.03 32.23 C 1495.99 38.70 1501.49 48.60 1501.36 59.02 C 1501.24 67.41 1502.00 76.21 1498.49 84.07 C 1493.56 95.44 1482.73 103.42 1471.06 106.89 C 1463.89 108.95 1456.38 108.85 1449.02 109.35 C 1435.67 109.68 1422.32 109.31 1408.97 109.35 C 1408.12 119.98 1408.13 130.66 1407.84 141.31 C 1399.44 141.45 1391.03 141.35 1382.63 141.37 C 1382.60 101.37 1382.65 61.37 1382.61 21.38 M 1408.00 44.00 C 1408.00 58.67 1408.00 73.33 1408.00 88.00 C 1424.35 88.05 1440.76 88.63 1457.06 87.06 C 1465.30 85.92 1473.86 79.93 1474.58 71.08 C 1474.54 65.24 1475.34 58.95 1472.47 53.60 C 1468.87 48.13 1462.59 44.42 1456.04 44.08 C 1440.03 43.79 1424.01 43.86 1408.00 44.00 Z" />
<path fill="#000000" opacity="1.00" d=" M 1528.52 21.25 C 1537.21 21.33 1545.91 21.42 1554.62 21.39 C 1554.63 54.25 1554.62 87.12 1554.62 119.99 C 1577.75 120.01 1600.87 119.99 1624.00 120.00 C 1623.99 127.13 1624.00 134.25 1624.00 141.38 C 1592.00 141.38 1560.00 141.38 1528.00 141.38 C 1528.15 101.33 1527.36 61.28 1528.52 21.25 Z" />
<path fill="#000000" opacity="1.00" d=" M 1689.21 21.36 C 1698.19 21.22 1707.17 21.24 1716.16 21.26 C 1735.18 61.36 1755.50 100.84 1774.17 141.12 C 1765.49 141.07 1756.81 141.32 1748.14 141.27 C 1744.84 134.66 1741.35 128.16 1737.91 121.64 C 1714.67 121.32 1691.42 121.25 1668.18 121.49 C 1665.24 128.14 1661.90 134.61 1658.92 141.25 C 1649.91 141.62 1640.89 141.19 1631.89 141.25 C 1651.04 101.31 1669.71 61.13 1689.21 21.36 M 1694.07 66.13 C 1688.85 77.90 1682.70 89.25 1678.07 101.27 C 1694.77 101.22 1711.48 101.28 1728.19 101.24 C 1720.47 83.42 1711.19 66.34 1703.09 48.70 C 1699.99 54.46 1696.61 60.09 1694.07 66.13 Z" />
<path fill="#000000" opacity="1.00" d=" M 1784.02 22.08 C 1822.66 20.73 1861.31 21.53 1899.97 21.35 C 1900.04 28.64 1899.97 35.93 1900.00 43.22 C 1884.91 43.69 1869.83 44.17 1854.74 44.00 C 1854.47 76.46 1854.71 108.93 1854.62 141.39 C 1846.16 141.41 1837.71 141.27 1829.26 141.47 C 1829.27 109.03 1829.19 76.58 1829.30 44.14 C 1814.21 43.75 1798.87 44.36 1783.94 43.17 C 1783.85 36.14 1783.75 29.10 1784.02 22.08 Z" />
<path fill="#000000" opacity="1.00" d=" M 1925.33 21.39 C 1959.99 21.34 1994.66 21.43 2029.32 21.35 C 2029.15 28.63 2029.32 35.92 2029.22 43.21 C 2003.03 44.38 1976.83 43.96 1950.62 44.00 C 1950.61 51.54 1950.64 59.08 1950.60 66.61 C 1974.38 66.63 1998.16 66.47 2021.93 67.21 C 2021.32 74.14 2020.55 81.05 2019.78 87.96 C 1996.69 88.23 1973.59 87.85 1950.50 88.00 C 1950.49 98.65 1950.76 109.29 1951.19 119.92 C 1977.68 120.13 2004.16 119.90 2030.65 120.04 C 2030.59 127.15 2030.62 134.27 2030.63 141.38 C 1995.50 141.41 1960.36 141.30 1925.22 141.44 C 1925.34 101.42 1925.12 61.40 1925.33 21.39 Z" />
</g>
</svg>
