<?xml version="1.0" encoding="UTF-8" ?>
<!DOCTYPE svg PUBLIC "-//W3C//DTD SVG 1.1//EN" "http://www.w3.org/Graphics/SVG/1.1/DTD/svg11.dtd">
<svg width="1531pt" height="122pt" viewBox="0 0 1531 122" version="1.1" xmlns="http://www.w3.org/2000/svg">
<g id="#0052d9ff">
<path fill="#0052d9" opacity="1.00" d=" M 20.38 4.53 C 35.18 3.42 50.08 3.56 64.89 4.31 C 73.06 5.30 73.53 19.73 65.61 21.47 C 53.77 22.57 41.87 21.98 30.00 22.02 C 30.33 48.55 29.35 75.10 30.31 101.62 C 30.58 101.89 31.11 102.42 31.38 102.69 C 58.24 103.65 85.14 102.67 112.01 103.00 C 111.98 91.32 111.60 79.63 112.08 67.95 C 112.00 64.36 116.54 63.26 119.16 62.08 C 122.82 61.90 125.91 64.24 129.03 65.81 C 128.82 81.54 129.49 97.29 128.90 113.01 C 128.92 118.77 121.53 120.24 117.05 119.92 C 87.02 120.24 56.99 119.89 26.96 120.09 C 20.37 121.27 11.18 117.02 13.16 109.01 C 12.68 79.00 13.09 48.98 12.96 18.96 C 12.22 13.45 14.38 6.07 20.38 4.53 Z" />
</g>
<g id="#eb2f96ff">
<path fill="#eb2f96" opacity="1.00" d=" M 89.39 4.48 C 99.22 3.51 109.14 3.58 119.00 4.15 C 122.89 4.45 127.01 6.62 128.42 10.45 C 129.59 21.94 129.40 33.53 128.94 45.06 C 128.98 49.29 124.86 52.40 120.92 52.77 C 117.50 52.34 114.73 50.02 111.91 48.24 C 111.97 39.54 111.99 30.85 112.01 22.16 C 103.80 22.08 95.57 22.28 87.40 21.44 C 81.77 20.37 78.82 12.32 83.23 8.22 C 84.84 6.38 86.82 4.63 89.39 4.48 Z" />
</g>
<g id="#000000ff">
<path fill="#000000" opacity="1.00" d=" M 263.98 15.99 C 270.69 15.99 277.40 15.99 284.12 15.99 C 289.50 26.05 294.26 36.43 299.36 46.64 C 308.63 66.55 319.07 85.91 328.00 105.98 C 321.32 105.98 314.65 105.99 307.98 105.99 C 305.88 100.90 303.65 95.86 301.17 90.95 C 283.55 91.04 265.94 90.94 248.32 91.08 C 246.24 96.05 243.82 100.86 241.68 105.80 C 234.77 105.94 227.87 106.11 220.96 106.25 C 228.77 91.67 234.99 76.31 242.48 61.57 C 249.83 46.46 256.92 31.23 263.98 15.99 M 255.57 75.88 C 268.14 76.03 280.72 76.02 293.30 75.89 C 287.24 62.61 281.08 49.36 274.40 36.38 C 267.79 49.38 261.91 62.75 255.57 75.88 Z" />
<path fill="#000000" opacity="1.00" d=" M 342.01 15.64 C 348.97 16.12 356.15 15.53 362.98 17.15 C 381.23 25.94 398.89 35.91 416.96 45.06 C 416.97 35.37 417.01 25.68 417.01 16.00 C 423.33 16.00 429.67 16.00 436.00 16.00 C 436.00 45.98 436.00 75.95 436.00 105.93 C 429.68 106.03 423.39 106.15 417.09 106.32 C 416.98 92.36 417.02 78.40 416.87 64.44 C 397.94 55.88 379.79 45.72 361.19 36.49 C 360.73 59.84 361.32 83.19 360.76 106.54 C 354.51 106.29 348.25 106.08 342.00 105.91 C 341.99 75.82 341.99 45.73 342.01 15.64 Z" />
<path fill="#000000" opacity="1.00" d=" M 455.00 16.00 C 483.99 16.68 513.12 14.66 542.03 16.84 C 542.06 22.22 542.01 27.61 541.41 32.97 C 530.27 32.99 519.13 33.02 508.00 33.00 C 508.01 57.33 507.99 81.67 508.00 106.00 C 501.65 106.00 495.33 106.00 489.00 106.00 C 489.01 81.68 488.99 57.37 489.00 33.05 C 477.65 33.02 466.31 33.08 454.98 32.58 C 454.99 27.05 455.00 21.53 455.00 16.00 Z" />
<path fill="#000000" opacity="1.00" d=" M 560.43 16.00 C 582.12 17.27 605.16 12.13 625.77 21.12 C 635.19 24.87 644.00 31.54 647.96 41.13 C 654.13 55.82 653.66 73.88 643.96 86.97 C 636.14 98.11 622.52 103.34 609.57 105.40 C 593.07 106.57 576.48 106.26 559.98 105.56 C 560.25 75.71 559.46 45.84 560.43 16.00 M 579.00 32.92 C 578.99 51.98 579.00 71.05 579.00 90.11 C 593.11 89.21 609.29 92.42 621.64 83.70 C 637.27 71.65 634.88 43.68 616.67 35.34 C 604.55 31.51 591.50 33.42 579.00 32.92 Z" />
<path fill="#000000" opacity="1.00" d=" M 702.97 16.57 C 731.97 15.64 761.02 15.63 790.03 16.57 C 790.03 20.54 790.03 28.46 790.03 32.43 C 778.68 32.96 767.34 33.05 756.00 33.05 C 756.01 57.37 755.99 81.68 756.00 106.00 C 749.65 106.00 743.33 106.00 737.00 106.00 C 737.01 81.68 736.99 57.37 737.00 33.05 C 725.65 33.02 714.31 33.08 702.99 32.58 C 702.98 28.58 702.97 20.58 702.97 16.57 Z" />
<path fill="#000000" opacity="1.00" d=" M 809.00 16.00 C 835.00 16.18 861.02 15.51 887.01 16.45 C 887.02 20.44 887.03 28.43 887.03 32.42 C 867.36 33.36 847.67 32.97 828.00 32.99 C 827.99 38.66 827.99 44.32 828.00 49.99 C 845.32 50.02 862.66 49.98 879.99 50.00 C 880.00 53.86 880.03 61.57 880.04 65.42 C 862.69 66.29 845.31 66.28 827.97 65.43 C 827.98 73.62 827.99 81.81 828.01 90.00 C 848.00 90.00 868.00 90.00 888.00 90.00 C 887.98 95.33 887.98 100.66 888.00 106.00 C 861.66 106.01 835.33 106.01 809.00 106.00 C 808.99 76.00 808.99 46.00 809.00 16.00 Z" />
<path fill="#000000" opacity="1.00" d=" M 908.01 15.63 C 914.71 16.45 922.25 14.96 928.56 17.52 C 939.23 27.57 949.38 38.19 959.97 48.35 C 970.85 37.76 981.57 26.99 992.23 16.16 C 998.80 16.08 1005.39 16.01 1012.00 15.95 C 1012.00 46.01 1012.00 76.07 1012.00 106.13 C 1005.30 106.00 998.64 106.05 991.98 105.53 C 991.96 84.89 992.17 64.24 991.76 43.59 C 980.99 53.32 970.76 63.61 959.97 73.30 C 948.89 63.24 938.53 52.40 927.22 42.60 C 926.84 63.73 927.02 84.87 927.00 106.00 C 920.64 106.00 914.33 106.00 908.00 106.00 C 908.00 75.88 907.99 45.76 908.01 15.63 Z" />
<path fill="#000000" opacity="1.00" d=" M 1037.00 16.02 C 1055.33 16.14 1073.66 15.57 1091.99 16.19 C 1104.09 16.29 1117.49 21.52 1123.18 32.87 C 1127.09 39.13 1125.85 47.00 1125.97 54.00 C 1125.81 68.53 1112.01 79.48 1098.40 81.27 C 1084.53 82.71 1070.56 81.91 1056.66 81.98 C 1056.18 89.98 1056.01 97.99 1055.91 106.00 C 1049.58 106.00 1043.30 106.00 1037.00 106.00 C 1036.99 76.01 1036.99 46.01 1037.00 16.02 M 1056.00 33.01 C 1055.99 44.01 1055.99 55.01 1056.00 66.01 C 1068.18 65.98 1080.41 66.54 1092.57 65.37 C 1098.67 64.61 1104.89 60.35 1105.99 53.99 C 1105.93 49.50 1106.58 44.56 1104.62 40.35 C 1101.76 36.25 1097.13 33.17 1092.04 33.04 C 1080.02 32.65 1068.00 33.01 1056.00 33.01 Z" />
<path fill="#000000" opacity="1.00" d=" M 1146.43 15.98 C 1152.92 15.98 1159.47 16.00 1166.00 16.00 C 1165.98 40.67 1166.00 65.33 1166.00 89.99 C 1183.33 90.02 1200.66 89.98 1218.00 90.01 C 1217.98 95.33 1217.98 100.66 1218.00 106.00 C 1193.99 106.00 1169.99 106.01 1146.00 106.00 C 1146.27 75.99 1145.41 45.97 1146.43 15.98 Z" />
<path fill="#000000" opacity="1.00" d=" M 1266.85 15.99 C 1273.59 15.99 1280.35 15.98 1287.12 15.96 C 1301.32 46.05 1316.75 75.58 1330.64 105.81 C 1324.11 105.90 1317.65 105.96 1311.16 105.98 C 1308.69 101.00 1305.95 96.17 1303.48 91.20 C 1286.07 90.91 1268.66 90.95 1251.27 91.08 C 1248.77 96.00 1246.39 100.98 1244.11 106.01 C 1237.39 106.00 1230.68 105.99 1223.99 105.97 C 1238.32 76.00 1252.25 45.84 1266.85 15.99 M 1268.99 53.00 C 1265.66 60.69 1261.49 68.00 1258.62 75.90 C 1271.12 76.02 1283.63 76.01 1296.16 75.96 C 1290.54 62.51 1283.28 49.84 1277.35 36.53 C 1274.17 41.81 1271.48 47.37 1268.99 53.00 Z" />
<path fill="#000000" opacity="1.00" d=" M 1337.97 16.58 C 1366.95 15.38 1395.98 16.26 1425.00 16.00 C 1424.98 21.46 1424.99 26.92 1425.03 32.38 C 1413.68 32.97 1402.33 33.04 1391.00 33.05 C 1391.00 57.37 1390.98 81.68 1391.00 106.00 C 1384.63 106.00 1378.32 106.00 1372.00 106.00 C 1372.01 81.68 1371.98 57.37 1372.00 33.05 C 1360.65 33.02 1349.31 33.08 1337.99 32.58 C 1337.98 28.58 1337.97 20.58 1337.97 16.58 Z" />
<path fill="#000000" opacity="1.00" d=" M 1444.00 16.01 C 1470.00 15.99 1495.99 15.99 1522.00 16.00 C 1521.98 21.46 1521.99 26.92 1522.03 32.37 C 1502.36 33.39 1482.67 32.97 1463.00 32.99 C 1462.97 38.66 1462.98 44.32 1463.00 49.99 C 1480.80 50.07 1498.62 49.64 1516.43 50.49 C 1515.88 55.68 1515.73 60.91 1514.83 66.06 C 1497.52 66.05 1480.21 65.93 1462.91 66.01 C 1462.99 74.01 1462.97 82.02 1463.45 90.01 C 1483.29 90.01 1503.14 89.99 1523.00 90.00 C 1522.97 95.33 1522.97 100.66 1523.00 106.00 C 1496.66 106.01 1470.33 106.01 1444.00 106.00 C 1443.99 76.00 1443.99 46.00 1444.00 16.01 Z" />
</g>
</svg>
